<?xml version="1.0" standalone="no"?>
<!DOCTYPE svg PUBLIC "-//W3C//DTD SVG 20010904//EN"
 "http://www.w3.org/TR/2001/REC-SVG-20010904/DTD/svg10.dtd">
<svg version="1.0" xmlns="http://www.w3.org/2000/svg"
 width="576.000000pt" height="576.000000pt" viewBox="0 0 576.000000 576.000000"
 preserveAspectRatio="xMidYMid meet">
<metadata>
Created by potrace 1.14, written by Peter Selinger 2001-2017
</metadata>
<g transform="translate(0.000000,576.000000) scale(0.100000,-0.100000)"
fill="#000000" stroke="none">
<path d="M2595 4710 c-3 -5 -18 -10 -32 -10 -69 0 -311 -104 -377 -162 -11
-10 -24 -18 -29 -18 -5 0 -17 -8 -26 -18 -9 -10 -32 -29 -51 -42 -45 -32 -148
-135 -180 -180 -13 -19 -32 -44 -42 -54 -10 -11 -18 -26 -18 -33 0 -7 -4 -13
-10 -13 -5 0 -10 -13 -10 -30 0 -16 -4 -30 -10 -30 -5 0 -10 -9 -10 -20 0 -13
-7 -20 -20 -20 -28 0 -100 -23 -100 -32 0 -5 -9 -8 -20 -8 -11 0 -20 -4 -20
-10 0 -5 -6 -10 -14 -10 -16 0 -126 -106 -126 -121 0 -5 -9 -19 -20 -31 -11
-12 -20 -28 -20 -35 0 -7 -4 -13 -10 -13 -5 0 -10 -9 -10 -20 0 -11 -4 -20
-10 -20 -5 0 -10 -9 -10 -20 0 -11 -4 -20 -10 -20 -5 0 -10 -9 -10 -19 0 -11
-4 -23 -10 -26 -5 -3 -10 -17 -10 -30 0 -13 -4 -27 -10 -30 -5 -3 -10 -19 -10
-34 0 -15 -4 -31 -9 -36 -30 -32 -30 -402 0 -421 5 -3 9 -18 9 -34 0 -16 4
-32 10 -35 5 -3 10 -17 10 -31 0 -13 5 -24 10 -24 6 0 10 -7 10 -15 0 -18 37
-100 60 -135 34 -50 33 -65 -5 -80 -19 -8 -35 -17 -35 -22 0 -4 -7 -8 -15 -8
-47 0 -205 -211 -205 -274 0 -12 -5 -27 -11 -33 -19 -19 1 -273 22 -273 5 0 9
-6 9 -13 0 -18 24 -67 33 -67 4 0 7 -6 7 -14 0 -18 97 -117 133 -135 15 -8 27
-18 27 -23 0 -4 9 -8 20 -8 11 0 20 -4 20 -10 0 -5 11 -10 24 -10 14 0 28 -5
31 -10 3 -5 19 -10 35 -10 39 0 122 -22 135 -35 9 -10 16 -20 48 -77 6 -13 19
-30 27 -38 9 -8 27 -31 40 -50 13 -19 31 -42 40 -50 8 -8 28 -32 43 -53 37
-49 152 -164 200 -200 21 -16 47 -38 60 -50 12 -13 38 -33 57 -47 19 -13 44
-32 54 -42 11 -10 24 -18 28 -18 5 0 18 -9 30 -20 12 -11 28 -20 35 -20 7 0
13 -4 13 -10 0 -5 6 -10 13 -10 7 0 23 -9 35 -20 12 -11 28 -20 37 -20 8 0 15
-4 15 -10 0 -5 9 -10 20 -10 11 0 20 -3 20 -7 0 -9 49 -33 67 -33 7 0 13 -4
13 -10 0 -5 9 -10 20 -10 11 0 20 -4 20 -10 0 -5 9 -10 19 -10 11 0 23 -4 26
-10 3 -5 17 -10 31 -10 13 0 24 -4 24 -10 0 -5 14 -10 30 -10 17 0 30 -4 30
-9 0 -5 15 -11 33 -14 17 -4 48 -9 67 -12 19 -4 44 -10 55 -15 66 -28 399 -27
429 1 6 5 22 9 37 9 15 0 31 5 34 10 3 6 14 10 23 10 21 1 165 72 182 90 3 3
21 17 40 30 46 32 144 132 167 170 9 16 21 30 25 30 4 0 8 6 8 13 0 7 9 23 20
35 11 12 20 28 20 36 0 8 4 16 8 18 11 4 72 127 72 144 0 8 5 14 10 14 6 0 10
9 10 19 0 11 5 23 10 26 6 3 10 17 10 31 0 13 5 24 10 24 6 0 10 13 10 29 0
17 4 32 9 35 5 3 11 18 14 33 3 16 11 48 17 73 46 185 73 410 73 620 0 151
-11 288 -24 296 -5 3 -9 20 -9 39 0 19 -4 37 -10 40 -5 3 -10 19 -10 35 0 16
-4 32 -10 35 -5 3 -10 17 -10 30 0 13 -4 27 -10 30 -5 3 -10 15 -10 26 0 10
-4 19 -10 19 -5 0 -10 7 -10 15 0 16 -7 32 -34 80 -10 17 -20 38 -23 48 -3 9
-9 17 -14 17 -5 0 -9 6 -9 13 0 7 -9 23 -20 34 -10 12 -22 33 -26 47 -6 25 -5
26 40 26 25 0 46 5 46 10 0 6 18 10 40 10 22 0 40 5 40 10 0 6 15 10 34 10 19
0 38 5 41 10 3 6 15 10 26 10 10 0 27 4 37 9 9 5 28 13 42 19 56 22 200 97
200 104 0 5 6 8 13 8 6 0 25 11 41 25 16 14 33 25 37 25 15 0 169 159 169 175
0 8 -9 15 -19 15 -11 0 -23 5 -26 10 -3 6 -26 10 -51 10 -24 0 -44 5 -44 10 0
6 -15 10 -34 10 -19 0 -38 5 -41 10 -3 6 -19 10 -36 10 -16 0 -29 5 -29 10 0
6 -11 10 -24 10 -14 0 -28 5 -31 10 -3 6 -15 10 -26 10 -10 0 -19 5 -19 10 0
6 -6 10 -14 10 -7 0 -26 12 -42 28 -16 15 -45 38 -64 52 -19 13 -51 40 -70 60
-19 19 -52 48 -73 64 -21 15 -53 42 -70 60 -18 17 -50 44 -71 60 -21 16 -57
47 -80 70 -22 23 -57 52 -76 66 -19 13 -46 36 -60 50 -14 14 -41 37 -60 50
-19 14 -45 34 -57 47 -12 12 -36 30 -53 39 -16 10 -30 22 -30 26 0 4 -6 8 -13
8 -7 0 -23 9 -35 20 -12 11 -28 20 -37 20 -8 0 -15 5 -15 10 0 6 -9 10 -20 10
-11 0 -20 5 -20 10 0 6 -7 10 -15 10 -8 0 -23 4 -33 9 -9 5 -30 14 -47 21 -16
7 -38 16 -47 21 -10 5 -27 9 -37 9 -11 0 -23 5 -26 10 -3 6 -17 10 -30 10 -13
0 -27 5 -30 10 -3 6 -21 10 -40 10 -19 0 -37 5 -40 10 -3 6 -26 10 -50 10 -24
0 -47 5 -50 10 -4 6 -75 10 -180 10 -105 0 -176 -4 -180 -10z m85 -1340 c0 -5
14 -10 30 -10 17 0 30 -4 30 -10 0 -5 14 -10 30 -10 17 0 30 -4 30 -10 0 -5
11 -10 25 -10 14 0 33 -4 43 -9 29 -14 87 -31 110 -31 11 0 24 -4 27 -10 3 -5
22 -10 41 -10 19 0 34 -4 34 -10 0 -5 7 -10 15 -10 8 0 15 -4 15 -10 0 -13
-63 -13 -77 1 -6 6 -61 9 -154 6 -164 -4 -197 -10 -271 -48 -24 -12 -48 -11
-48 1 0 6 5 10 10 10 6 0 10 14 10 30 0 17 5 30 10 30 6 0 10 14 10 30 0 17 5
30 10 30 6 0 10 11 10 23 0 13 3 27 7 30 10 11 53 8 53 -3z m1125 -165 c12
-13 35 -53 35 -60 0 -3 -48 -5 -106 -5 -78 0 -109 -4 -120 -14 -38 -38 -4 -64
87 -68 73 -3 74 -3 45 -18 -48 -25 -64 -64 -65 -157 -1 -49 3 -83 9 -83 6 0
10 -7 10 -15 0 -23 45 -65 69 -65 36 0 66 21 79 53 8 18 18 40 23 49 5 10 9
36 9 58 0 38 -2 40 -30 40 -23 0 -30 4 -30 20 0 11 5 20 10 20 6 0 10 12 10
26 0 26 -20 54 -39 54 -6 0 -11 5 -11 10 0 6 15 10 34 10 19 0 38 -4 41 -10 3
-5 15 -10 27 -10 11 0 22 -8 25 -20 3 -11 9 -20 14 -20 5 0 9 -9 9 -20 0 -11
5 -20 10 -20 6 0 10 -9 10 -19 0 -11 5 -23 10 -26 6 -3 10 -17 10 -31 0 -13 5
-24 10 -24 6 0 10 -13 10 -30 0 -16 5 -30 10 -30 6 0 10 -18 10 -40 0 -22 4
-40 9 -40 24 0 33 -390 13 -560 -7 -52 -15 -120 -18 -150 -3 -30 -10 -59 -15
-65 -5 -5 -9 -26 -9 -46 0 -21 -4 -41 -10 -44 -5 -3 -10 -22 -10 -41 0 -19 -4
-34 -10 -34 -5 0 -10 -13 -10 -29 0 -17 -4 -33 -10 -36 -5 -3 -10 -17 -10 -30
0 -13 -4 -27 -10 -30 -5 -3 -10 -17 -10 -31 0 -13 -4 -24 -10 -24 -5 0 -10 -9
-10 -20 0 -11 -4 -20 -10 -20 -5 0 -10 -6 -10 -14 0 -17 -42 -100 -52 -104 -5
-2 -8 -8 -8 -14 0 -11 -53 -90 -90 -133 -59 -70 -157 -155 -177 -155 -7 0 -13
-4 -13 -8 0 -10 -85 -52 -105 -52 -8 0 -15 -4 -15 -10 0 -5 -13 -10 -30 -10
-16 0 -30 -4 -30 -9 0 -23 -258 -32 -365 -12 -33 5 -77 13 -98 17 -20 3 -40
10 -43 15 -3 5 -16 9 -29 9 -13 0 -27 5 -30 10 -3 6 -17 10 -31 10 -13 0 -24
5 -24 10 0 6 -11 10 -24 10 -14 0 -28 5 -31 10 -3 6 -15 10 -26 10 -10 0 -19
5 -19 10 0 6 -9 10 -20 10 -11 0 -20 5 -20 10 0 6 -9 10 -20 10 -11 0 -20 5
-20 10 0 6 -9 10 -20 10 -11 0 -20 4 -20 9 0 5 -8 11 -17 14 -22 7 -72 37 -91
54 -7 7 -17 13 -21 13 -4 0 -21 11 -37 25 -16 14 -33 25 -38 25 -5 0 -16 8
-25 18 -9 10 -32 29 -51 42 -45 31 -289 275 -320 320 -13 19 -32 42 -42 51
-25 22 -23 34 10 55 15 10 43 34 62 53 19 20 52 49 74 65 21 16 62 52 90 80
28 28 76 71 106 96 30 25 148 139 263 254 202 203 209 208 240 201 58 -13 229
-17 240 -6 6 6 21 11 34 11 13 0 23 5 23 10 0 6 7 10 15 10 27 0 79 35 135 90
55 56 90 108 90 135 0 8 5 15 10 15 6 0 10 40 10 100 0 60 -4 100 -10 100 -5
0 -10 11 -10 25 0 16 -17 43 -50 77 -27 28 -50 58 -50 65 0 10 63 13 303 15
308 3 325 2 342 -17z m-1345 -295 c0 -27 5 -50 10 -50 6 0 10 -6 10 -14 0 -36
61 -129 128 -192 17 -17 32 -34 32 -38 0 -10 -454 -460 -498 -493 -20 -15 -60
-51 -88 -79 -28 -28 -69 -64 -90 -80 -21 -16 -56 -46 -77 -66 -22 -21 -45 -38
-53 -38 -11 0 -54 50 -54 64 0 3 -10 17 -22 31 -18 21 -30 25 -79 25 -32 0
-68 4 -81 9 -13 5 -42 15 -65 21 -23 7 -51 21 -62 32 -11 10 -24 18 -30 18 -8
0 -32 26 -84 89 -9 12 -17 28 -17 36 0 8 -4 15 -10 15 -5 0 -10 11 -10 24 0
14 -4 28 -10 31 -16 10 -12 165 6 210 8 22 17 48 21 58 3 9 9 17 14 17 5 0 9
6 9 14 0 19 87 106 106 106 8 0 14 5 14 10 0 6 9 10 20 10 11 0 20 5 20 10 0
6 14 10 32 10 17 0 47 6 66 13 28 10 36 10 39 0 3 -7 15 -13 28 -13 26 0 115
-82 115 -106 0 -8 4 -14 8 -14 5 0 15 -12 23 -27 8 -16 16 -30 19 -33 6 -6 50
-86 65 -117 5 -13 13 -23 18 -23 4 0 7 -9 7 -20 0 -11 5 -20 10 -20 6 0 10 -9
10 -20 0 -11 5 -20 10 -20 6 0 10 -9 10 -20 0 -11 5 -20 10 -20 6 0 10 -7 10
-16 0 -19 24 -44 43 -44 24 0 29 27 38 180 11 193 19 260 30 260 5 0 9 7 9 15
0 17 126 147 180 185 19 14 57 46 83 72 64 63 77 62 77 -2z"/>
<path d="M3433 2585 c-7 -8 -13 -19 -13 -25 0 -17 26 -40 44 -40 9 0 16 -4 16
-10 0 -5 9 -10 20 -10 11 0 20 -4 20 -10 0 -5 9 -10 20 -10 11 0 20 -4 20 -9
0 -5 9 -12 19 -16 26 -8 72 -53 90 -87 21 -40 18 -113 -4 -138 -26 -29 -73
-50 -112 -50 -50 0 -124 -21 -130 -37 -12 -30 17 -43 98 -43 46 0 79 4 79 10
0 6 14 10 30 10 17 0 30 5 30 10 0 6 7 10 15 10 20 0 65 45 65 65 0 8 5 15 10
15 6 0 10 30 10 70 0 81 -17 118 -83 183 -45 44 -65 57 -132 90 -22 11 -48 23
-57 28 -25 12 -41 11 -55 -6z"/>
<path d="M2897 1721 c-16 -61 21 -189 68 -236 42 -42 151 -79 230 -77 54 1
145 16 145 23 0 5 10 9 23 9 12 0 33 9 47 20 14 11 28 20 33 20 11 0 89 82
105 110 44 75 52 93 52 120 0 28 -2 30 -39 30 -22 0 -43 -4 -46 -10 -3 -5 -19
-10 -34 -10 -15 0 -32 -5 -38 -11 -19 -19 -405 1 -427 22 -6 5 -33 9 -62 9
-42 0 -53 -3 -57 -19z m139 -70 c20 -20 326 -32 407 -16 21 4 37 3 37 -2 0
-16 -71 -93 -86 -93 -8 0 -14 -4 -14 -10 0 -5 -9 -10 -20 -10 -11 0 -20 -4
-20 -9 0 -19 -205 -40 -223 -22 -6 6 -20 11 -30 11 -30 0 -105 80 -107 115 -1
17 -2 33 -1 38 1 10 45 9 57 -2z"/>
<path d="M1533 2465 c-15 -17 -17 -85 -3 -85 6 0 10 -15 10 -34 0 -19 5 -38
10 -41 6 -3 10 -17 10 -31 0 -25 40 -74 59 -74 6 0 22 10 36 22 26 22 35 80
15 93 -5 3 -10 19 -10 35 0 16 -4 32 -10 35 -5 3 -10 20 -10 36 0 17 -6 37
-14 45 -19 18 -77 18 -93 -1z"/>
</g>
</svg>
