<?xml version="1.0" standalone="no"?>
<!DOCTYPE svg PUBLIC "-//W3C//DTD SVG 20010904//EN"
 "http://www.w3.org/TR/2001/REC-SVG-20010904/DTD/svg10.dtd">
<svg version="1.0" xmlns="http://www.w3.org/2000/svg"
 width="512.000000pt" height="512.000000pt" viewBox="0 0 512.000000 512.000000"
 preserveAspectRatio="xMidYMid meet">
<metadata>
Created by potrace 1.14, written by Peter Selinger 2001-2017
</metadata>
<g transform="translate(0.000000,512.000000) scale(0.100000,-0.100000)"
fill="#000000" stroke="none">
<path d="M1868 5101 c-31 -10 -76 -30 -100 -44 -48 -28 -135 -113 -173 -169
-118 -174 -200 -474 -222 -808 -12 -188 -6 -595 11 -700 3 -14 7 -61 11 -105
4 -44 8 -82 10 -85 2 -3 6 -32 10 -65 3 -33 14 -106 24 -163 18 -103 18 -103
-3 -130 -11 -15 -23 -29 -26 -32 -32 -30 -245 -312 -337 -447 l-70 -102 -89
53 c-108 64 -207 127 -214 136 -3 3 -13 9 -23 13 -14 5 -16 13 -10 34 4 16 7
53 6 85 -4 163 -164 274 -326 226 -38 -12 -41 -11 -64 18 -82 100 -132 226
-129 324 3 86 33 146 105 213 113 104 286 172 566 222 17 3 57 8 90 11 33 4
71 8 85 9 14 2 44 3 67 4 46 1 92 32 97 66 5 31 -22 74 -50 81 -23 6 -154 -1
-234 -12 -466 -66 -729 -198 -836 -420 -31 -64 -37 -89 -40 -154 -6 -155 37
-266 184 -470 11 -15 11 -23 1 -42 -20 -37 -16 -137 7 -188 24 -51 71 -103
117 -127 51 -26 153 -29 208 -5 l46 20 89 -59 c49 -33 128 -83 176 -112 49
-29 88 -56 88 -60 0 -5 -8 -21 -19 -35 -21 -30 -153 -289 -188 -367 -302 -691
-153 -1152 375 -1156 34 -1 62 -4 62 -8 0 -16 73 -82 113 -102 58 -30 157 -30
212 -1 83 44 131 106 141 182 6 46 7 48 63 70 90 37 270 125 355 174 44 25 82
46 85 46 3 0 19 -24 35 -53 16 -28 71 -115 122 -192 374 -567 755 -787 1067
-617 91 49 195 174 256 306 53 114 109 319 126 461 4 28 8 61 10 75 9 60 17
186 20 310 2 74 4 140 4 145 1 6 46 10 114 11 115 0 302 10 347 18 14 2 48 7
75 10 28 3 84 13 125 22 41 9 83 17 94 20 102 20 278 94 362 152 173 117 237
228 238 407 0 89 -4 109 -32 180 -29 73 -78 158 -141 241 -20 28 -21 35 -10
55 7 13 13 53 13 89 0 178 -174 295 -343 231 l-48 -18 -119 79 c-66 43 -137
88 -159 99 -86 43 -85 35 -17 156 150 269 256 544 287 743 4 25 9 54 11 65 7
35 7 178 0 220 -11 67 -13 78 -36 138 -55 145 -193 250 -375 282 -35 6 -191 7
-220 2 -11 -3 -42 -7 -70 -11 -182 -25 -511 -153 -763 -298 -46 -26 -87 -48
-90 -48 -4 1 -25 31 -47 68 -46 77 -79 96 -123 71 -15 -8 -30 -28 -35 -46 -8
-27 -4 -41 31 -105 l41 -74 -109 -73 c-59 -40 -117 -79 -127 -87 -136 -103
-221 -169 -283 -220 -86 -70 -94 -74 -134 -63 -16 5 -54 11 -85 15 -31 3 -58
8 -61 9 -3 2 -30 6 -60 10 -30 3 -84 10 -120 15 -106 15 -128 13 -155 -16 -13
-14 -22 -34 -20 -45 14 -70 22 -74 200 -94 88 -10 195 -28 195 -32 0 -2 -28
-30 -62 -61 -87 -79 -342 -335 -405 -406 -29 -33 -55 -57 -58 -55 -2 3 -9 39
-15 80 -6 41 -12 83 -14 94 -2 11 -7 54 -11 95 -4 41 -8 86 -10 99 -19 115
-26 615 -12 726 4 28 9 77 13 110 8 80 49 277 75 356 38 118 100 229 164 294
33 34 78 70 100 80 50 24 151 28 213 9 65 -19 85 -18 110 9 31 33 29 80 -4
106 -59 46 -228 63 -326 32z m2324 -710 c104 -33 183 -124 208 -240 11 -55 10
-215 -4 -291 -23 -133 -103 -356 -193 -535 -52 -103 -128 -244 -138 -253 -1
-2 -60 25 -131 59 -142 67 -326 146 -476 203 -83 32 -97 41 -103 64 -18 75
-165 423 -245 581 l-40 81 39 25 c205 129 519 260 731 305 96 21 289 21 352 1z
m-1215 -479 c79 -165 203 -454 203 -474 0 -5 -4 -6 -10 -3 -5 3 -18 8 -27 10
-10 2 -54 15 -98 28 -125 39 -247 72 -410 112 -82 19 -156 38 -164 41 -8 2 31
39 100 92 111 86 359 261 369 261 3 0 19 -30 37 -67z m-582 -427 c173 -35 445
-105 625 -161 80 -25 159 -50 177 -55 57 -17 51 -5 160 -354 8 -27 16 -57 18
-65 2 -8 14 -58 29 -110 25 -94 70 -287 80 -345 3 -16 8 -43 12 -58 5 -23 -2
-37 -43 -84 -59 -70 -177 -195 -305 -325 -110 -110 -118 -130 -70 -178 47 -46
70 -34 212 110 69 69 151 155 183 190 31 34 59 61 62 58 3 -2 9 -39 15 -80 6
-42 13 -86 15 -97 2 -11 6 -51 10 -89 3 -38 8 -84 10 -103 3 -19 7 -76 10
-128 l6 -93 -100 6 c-54 4 -110 9 -123 11 -12 2 -50 6 -83 9 -75 8 -133 15
-165 21 -14 2 -47 7 -75 11 -27 3 -81 12 -120 19 -38 7 -86 16 -105 19 -42 7
-47 8 -175 36 -223 49 -597 153 -740 207 l-49 18 -38 120 c-64 197 -140 484
-184 687 l-27 126 23 29 c93 118 439 466 635 638 31 27 34 27 120 10z m1182
-360 c108 -44 383 -169 402 -182 7 -5 -88 -143 -208 -302 -142 -188 -140 -186
-145 -180 -2 2 -11 40 -21 84 -22 106 -97 386 -139 524 -18 61 -31 111 -29
111 2 0 65 -25 140 -55z m678 -337 c169 -104 205 -132 198 -152 -51 -169 92
-342 266 -322 31 3 67 7 80 9 20 2 33 -9 66 -58 123 -180 134 -348 31 -467
-35 -40 -112 -96 -178 -129 -59 -30 -208 -83 -263 -94 -219 -43 -293 -51 -547
-61 l-158 -5 -1 48 c-1 26 -2 59 -4 73 -1 14 -5 58 -9 98 -15 167 -41 364 -63
477 -10 53 -5 63 65 147 81 98 229 296 315 424 l62 92 30 -16 c17 -8 66 -37
110 -64z m-2740 -220 c13 -70 98 -386 133 -500 22 -71 37 -128 35 -128 -19 0
-512 216 -542 237 -10 7 213 321 308 432 l45 54 8 -34 c4 -19 10 -46 13 -61z
m-333 -578 c134 -63 392 -172 498 -210 36 -13 66 -24 68 -25 1 -1 27 -66 57
-143 61 -161 138 -338 201 -464 l44 -88 -42 -27 c-56 -35 -285 -151 -367 -186
l-63 -26 -30 30 c-74 73 -198 96 -283 52 -60 -31 -112 -89 -130 -144 l-17 -49
-53 0 c-172 0 -295 84 -339 233 -12 39 -15 83 -12 177 5 134 4 131 36 248 37
135 91 269 177 441 78 155 124 241 129 241 1 0 58 -27 126 -60z m987 -371
c191 -55 332 -90 491 -124 99 -21 176 -36 207 -40 21 -3 47 -8 59 -10 12 -3
39 -7 60 -10 21 -3 64 -10 94 -15 30 -5 80 -12 110 -15 30 -4 66 -8 80 -10 14
-2 63 -7 110 -11 47 -4 90 -8 95 -9 6 -1 38 -3 73 -3 l62 -2 -4 -147 c-8 -226
-19 -338 -51 -493 -3 -14 -8 -41 -11 -60 -12 -63 -75 -234 -109 -296 -47 -84
-118 -160 -179 -192 -43 -22 -64 -27 -131 -27 -73 0 -87 3 -165 41 -99 48
-169 98 -264 192 -68 67 -205 230 -242 287 -10 17 -21 32 -24 35 -9 8 -130
199 -130 205 0 3 -12 23 -26 45 -15 22 -25 42 -23 44 2 2 43 30 90 62 162 111
238 169 247 189 20 45 -16 104 -64 105 -22 0 -36 -9 -224 -139 -58 -41 -110
-75 -116 -78 -9 -3 -44 63 -124 240 -41 92 -120 285 -120 296 0 5 28 0 63 -11
34 -11 109 -33 166 -49z"/>
<path d="M2432 3069 c-97 -25 -174 -69 -248 -145 -248 -250 -177 -673 140
-833 257 -130 575 -26 705 233 202 399 -164 856 -597 745z"/>
<path d="M2500 4940 c-70 -20 -138 -76 -168 -140 -23 -48 -23 -173 1 -216 80
-151 281 -185 401 -68 57 55 70 89 71 174 0 84 -16 126 -68 180 -57 59 -166
91 -237 70z"/>
</g>
</svg>
