<?xml version="1.0" standalone="no"?>
<!DOCTYPE svg PUBLIC "-//W3C//DTD SVG 20010904//EN"
 "http://www.w3.org/TR/2001/REC-SVG-20010904/DTD/svg10.dtd">
<svg version="1.0" xmlns="http://www.w3.org/2000/svg"
 width="576.000000pt" height="576.000000pt" viewBox="0 0 576.000000 576.000000"
 preserveAspectRatio="xMidYMid meet">
<metadata>
Created by potrace 1.14, written by Peter Selinger 2001-2017
</metadata>
<g transform="translate(0.000000,576.000000) scale(0.100000,-0.100000)"
fill="#000000" stroke="none">
<path d="M2605 4710 c-3 -5 -24 -10 -45 -10 -21 0 -42 -4 -45 -10 -3 -5 -17
-10 -30 -10 -13 0 -27 -4 -30 -10 -3 -5 -17 -10 -31 -10 -13 0 -24 -4 -24 -10
0 -5 -6 -10 -14 -10 -16 0 -140 -62 -144 -72 -2 -5 -11 -8 -21 -8 -9 0 -23 -9
-31 -20 -8 -11 -20 -20 -26 -20 -6 0 -24 -12 -40 -28 -16 -15 -45 -38 -64 -52
-45 -32 -109 -96 -140 -140 -13 -19 -32 -42 -42 -51 -10 -9 -18 -20 -18 -25 0
-5 -9 -20 -20 -34 -11 -14 -20 -33 -20 -42 0 -39 -23 -68 -52 -68 -15 0 -28
-4 -28 -10 0 -5 -13 -10 -30 -10 -16 0 -30 -4 -30 -10 0 -5 -9 -10 -20 -10
-11 0 -20 -4 -20 -8 0 -4 -14 -16 -30 -26 -39 -22 -74 -57 -96 -96 -10 -16
-21 -30 -25 -30 -4 0 -12 -13 -19 -30 -7 -16 -16 -30 -21 -30 -5 0 -9 -9 -9
-20 0 -11 -4 -20 -10 -20 -5 0 -10 -7 -10 -15 0 -8 -4 -23 -9 -33 -5 -9 -13
-28 -19 -42 -5 -14 -15 -38 -21 -53 -6 -15 -11 -38 -11 -50 0 -13 -4 -27 -9
-32 -29 -30 -29 -369 0 -399 5 -6 9 -25 9 -43 0 -18 5 -33 10 -33 6 0 10 -13
10 -30 0 -16 5 -30 10 -30 6 0 10 -6 10 -14 0 -16 62 -140 73 -144 4 -2 7 -12
7 -23 0 -10 5 -19 10 -19 6 0 10 -4 10 -10 0 -5 -9 -10 -20 -10 -11 0 -20 -4
-20 -10 0 -5 -9 -10 -20 -10 -11 0 -20 -4 -20 -10 0 -5 -7 -10 -14 -10 -19 0
-146 -127 -146 -146 0 -8 -3 -14 -7 -14 -9 0 -33 -49 -33 -67 0 -7 -4 -13 -10
-13 -5 0 -10 -15 -10 -34 0 -19 -5 -38 -10 -41 -13 -8 -13 -182 0 -190 5 -3
10 -19 10 -35 0 -16 5 -32 10 -35 6 -3 10 -15 10 -26 0 -10 5 -19 10 -19 6 0
10 -9 10 -20 0 -11 4 -20 8 -20 5 0 15 -12 23 -27 18 -35 98 -113 116 -113 7
0 13 -4 13 -8 0 -12 78 -52 101 -52 10 0 19 -4 19 -10 0 -5 19 -10 43 -10 23
0 57 -4 76 -10 33 -9 81 -55 81 -77 0 -7 5 -13 10 -13 6 0 10 -7 10 -15 0 -9
16 -31 35 -51 19 -19 35 -39 35 -44 0 -4 18 -27 41 -51 22 -23 52 -58 67 -78
35 -46 74 -85 142 -141 30 -25 67 -57 82 -72 14 -16 30 -28 36 -28 5 0 22 -12
38 -27 16 -16 42 -34 57 -42 15 -8 27 -18 27 -23 0 -4 6 -8 13 -8 7 0 22 -8
33 -17 25 -23 74 -53 97 -60 9 -3 17 -9 17 -14 0 -5 9 -9 20 -9 11 0 20 -4 20
-10 0 -5 9 -10 20 -10 11 0 20 -4 20 -10 0 -5 9 -10 20 -10 11 0 20 -4 20 -10
0 -5 7 -10 15 -10 8 0 23 -4 33 -9 9 -5 31 -14 47 -21 17 -7 38 -16 47 -21 10
-5 27 -9 37 -9 11 0 23 -4 26 -10 3 -5 19 -10 35 -10 16 0 32 -4 35 -10 3 -5
24 -10 45 -10 21 0 41 -4 44 -9 4 -7 138 -21 206 -22 56 -1 210 16 210 22 0 5
11 9 25 9 26 0 43 6 148 53 37 17 67 34 67 39 0 4 7 8 16 8 9 0 24 8 33 18 9
10 32 29 51 42 44 31 88 75 120 120 13 19 32 44 42 54 10 11 18 24 18 28 0 5
9 18 20 30 11 12 20 28 20 35 0 7 5 13 10 13 6 0 10 9 10 20 0 11 3 20 8 20 8
0 32 49 32 67 0 7 5 13 10 13 6 0 10 9 10 20 0 11 5 20 10 20 6 0 10 9 10 20
0 11 4 28 9 38 24 48 51 131 51 160 0 12 5 22 10 22 6 0 10 18 10 40 0 22 5
40 10 40 6 0 10 23 10 50 0 28 4 50 9 50 5 0 12 30 15 68 3 37 11 121 17 187
14 154 15 309 0 410 -6 44 -13 101 -17 128 -3 26 -10 47 -15 47 -5 0 -9 13 -9
29 0 17 -4 33 -10 36 -5 3 -10 17 -10 30 0 13 -4 27 -10 30 -5 3 -10 17 -10
31 0 13 -4 24 -10 24 -5 0 -10 9 -10 20 0 11 -4 20 -9 20 -5 0 -11 13 -14 29
-3 16 -13 36 -22 44 -8 9 -15 21 -15 27 0 6 -9 20 -20 32 -11 12 -20 28 -20
35 0 7 -4 13 -8 13 -7 0 -32 42 -32 54 0 2 19 7 43 10 102 13 127 19 133 27 3
5 18 9 34 9 16 0 32 5 35 10 3 6 17 10 30 10 13 0 27 5 30 10 3 6 17 10 31 10
13 0 24 5 24 10 0 6 6 10 14 10 18 0 176 79 194 97 7 7 17 13 22 13 5 0 15 6
22 13 7 7 29 24 48 37 42 29 160 148 160 161 0 6 -8 12 -17 15 -10 3 -26 10
-35 15 -10 5 -33 9 -52 9 -19 0 -38 5 -41 10 -3 6 -21 10 -40 10 -19 0 -37 5
-40 10 -3 6 -17 10 -30 10 -13 0 -27 5 -30 10 -3 6 -17 10 -31 10 -13 0 -24 5
-24 10 0 6 -9 10 -20 10 -11 0 -20 5 -20 10 0 6 -7 10 -16 10 -9 0 -24 8 -33
18 -9 10 -32 29 -51 42 -19 13 -51 40 -70 60 -19 20 -51 47 -70 60 -19 13 -51
40 -70 60 -19 19 -52 48 -74 64 -21 16 -57 47 -80 70 -22 23 -57 52 -76 66
-19 13 -46 36 -60 50 -14 14 -41 37 -60 50 -19 13 -47 37 -62 52 -14 15 -30
28 -35 28 -4 0 -24 14 -43 30 -19 16 -39 30 -43 30 -4 0 -17 9 -29 20 -12 11
-28 20 -35 20 -7 0 -13 5 -13 10 0 6 -9 10 -20 10 -11 0 -20 4 -20 8 0 5 -22
15 -50 22 -27 7 -50 17 -50 22 0 4 -10 8 -23 8 -13 0 -27 4 -33 8 -5 5 -29 14
-54 21 -25 7 -53 17 -62 22 -10 5 -31 9 -47 9 -17 0 -33 5 -36 10 -3 6 -26 10
-50 10 -24 0 -47 5 -50 10 -4 6 -72 10 -170 10 -98 0 -166 -4 -170 -10z m80
-1340 c3 -5 17 -10 31 -10 13 0 24 -4 24 -10 0 -5 11 -10 25 -10 14 0 33 -4
43 -9 29 -15 87 -31 110 -31 12 0 22 -4 22 -9 0 -5 15 -11 33 -14 89 -15 147
-34 147 -48 0 -12 -87 -11 -95 1 -4 6 -62 10 -140 10 -78 0 -136 -4 -140 -10
-3 -5 -24 -10 -46 -10 -21 0 -39 -4 -39 -10 0 -5 -6 -10 -13 -10 -18 0 -67
-24 -67 -32 0 -5 -4 -8 -10 -8 -5 0 -10 9 -10 20 0 11 5 20 10 20 6 0 10 14
10 30 0 17 5 30 10 30 6 0 10 13 10 29 0 17 5 33 10 36 6 3 10 17 10 31 0 20
5 24 29 24 17 0 33 -4 36 -10z m1125 -171 c51 -53 43 -59 -76 -59 -105 0 -134
-9 -134 -40 0 -32 28 -40 149 -40 69 0 122 -4 126 -10 3 -5 14 -10 23 -10 16
0 62 -80 62 -108 0 -7 5 -12 10 -12 6 0 10 -11 10 -24 0 -14 5 -28 10 -31 6
-3 10 -17 10 -30 0 -13 4 -26 9 -29 9 -6 18 -48 27 -126 3 -25 10 -54 15 -66
12 -24 5 -358 -10 -479 -6 -44 -13 -102 -16 -130 -3 -27 -10 -59 -15 -70 -5
-11 -11 -36 -15 -55 -3 -19 -8 -50 -12 -68 -3 -18 -9 -35 -14 -38 -5 -3 -9
-18 -9 -34 0 -16 -4 -31 -8 -34 -4 -3 -14 -28 -22 -55 -7 -28 -17 -51 -22 -51
-4 0 -8 -7 -8 -15 0 -8 -4 -23 -9 -33 -5 -9 -20 -38 -32 -64 -13 -27 -27 -48
-31 -48 -5 0 -8 -9 -8 -20 0 -11 -4 -20 -9 -20 -5 0 -13 -9 -16 -20 -4 -11
-16 -31 -28 -43 -13 -12 -33 -38 -47 -57 -27 -39 -90 -99 -104 -100 -5 0 -16
-8 -25 -17 -18 -19 -44 -36 -106 -66 -22 -11 -48 -23 -57 -28 -10 -5 -26 -9
-36 -9 -10 0 -22 -4 -27 -9 -23 -21 -310 -40 -328 -22 -6 6 -32 11 -58 11 -26
0 -51 4 -54 10 -3 5 -21 10 -40 10 -19 0 -37 5 -40 10 -3 6 -15 10 -26 10 -10
0 -28 5 -39 10 -11 6 -29 15 -40 20 -11 5 -29 10 -40 10 -11 0 -20 5 -20 10 0
6 -9 10 -20 10 -11 0 -20 5 -20 10 0 6 -9 10 -20 10 -11 0 -20 5 -20 10 0 6
-9 10 -20 10 -11 0 -20 5 -20 10 0 6 -9 10 -20 10 -11 0 -20 5 -20 10 0 6 -9
10 -20 10 -11 0 -20 5 -20 10 0 6 -6 10 -13 10 -7 0 -22 8 -33 17 -10 10 -31
24 -46 32 -16 8 -28 18 -28 23 0 4 -6 8 -13 8 -7 0 -22 8 -33 18 -10 10 -34
28 -53 41 -95 68 -326 301 -369 373 -9 15 -20 28 -24 28 -20 0 -5 38 22 53 16
10 52 40 80 67 28 28 68 62 88 77 20 16 62 53 92 83 31 30 85 80 120 110 79
67 364 352 386 386 13 19 25 24 60 24 24 0 44 -4 44 -10 0 -6 40 -10 100 -10
60 0 100 4 100 10 0 6 14 10 30 10 17 0 30 5 30 10 0 6 9 10 20 10 11 0 20 5
20 10 0 6 7 10 16 10 9 0 50 33 90 74 41 41 74 81 74 90 0 9 5 16 10 16 6 0
10 9 10 20 0 11 5 20 10 20 6 0 10 34 10 83 0 106 -24 175 -80 228 -73 69 -76
68 253 72 160 1 300 3 309 5 10 1 31 -12 48 -29z m-1350 -269 c0 -36 22 -110
32 -110 5 0 8 -9 8 -20 0 -11 5 -20 10 -20 6 0 10 -7 10 -16 0 -9 27 -43 60
-76 33 -34 60 -65 60 -70 0 -13 -449 -460 -520 -518 -30 -25 -73 -64 -96 -86
-23 -23 -59 -54 -80 -70 -21 -16 -54 -44 -72 -62 -27 -27 -36 -30 -52 -22 -11
6 -20 17 -20 25 0 8 -4 15 -10 15 -5 0 -10 6 -10 13 0 6 -11 24 -24 40 -20 24
-30 27 -81 27 -55 0 -108 11 -147 31 -10 5 -25 9 -33 9 -8 0 -15 4 -15 8 0 5
-12 15 -27 23 -34 17 -93 78 -93 96 0 7 -3 13 -8 13 -4 0 -13 15 -20 33 -7 17
-18 40 -23 49 -12 24 -12 218 1 218 6 0 10 7 10 16 0 44 111 184 147 184 7 0
13 3 13 8 0 12 51 32 81 32 15 0 31 5 34 10 8 14 41 13 84 -2 39 -14 108 -77
130 -121 8 -15 18 -27 23 -27 4 0 8 -9 8 -20 0 -11 4 -20 8 -20 4 0 19 -22 33
-50 13 -27 27 -50 32 -50 4 0 7 -9 7 -20 0 -11 5 -20 10 -20 6 0 10 -9 10 -19
0 -11 3 -21 8 -23 4 -1 22 -33 41 -70 41 -82 65 -90 76 -25 4 23 11 101 15
172 10 151 17 200 33 235 14 30 158 175 207 210 19 13 51 41 70 62 44 47 70
50 70 8z"/>
<path d="M3724 3018 c-10 -13 -25 -33 -31 -45 -15 -27 -17 -159 -3 -168 6 -3
10 -13 10 -22 0 -20 50 -63 73 -63 24 0 67 29 67 46 0 8 5 14 10 14 6 0 10 11
10 24 0 14 5 28 10 31 6 3 10 24 10 46 0 37 -2 39 -30 39 -23 0 -30 5 -30 19
0 11 5 23 10 26 15 9 12 44 -4 61 -23 22 -79 18 -102 -8z"/>
<path d="M3432 2580 c-10 -16 -10 -24 0 -40 7 -11 18 -20 24 -20 15 0 98 -43
102 -52 2 -5 9 -8 16 -8 26 0 88 -70 106 -121 18 -49 18 -53 2 -87 -20 -42
-64 -70 -110 -71 -47 -1 -124 -21 -141 -37 -40 -37 82 -60 168 -33 74 24 121
52 133 80 7 16 16 29 20 29 5 0 8 29 8 65 0 47 -6 78 -21 108 -23 44 -104 127
-125 127 -7 0 -14 3 -16 8 -4 10 -87 52 -104 52 -8 0 -14 5 -14 10 0 18 -35
11 -48 -10z"/>
<path d="M2900 1661 c0 -47 4 -81 10 -81 6 0 10 -9 10 -20 0 -11 3 -20 8 -20
4 0 13 -13 20 -29 7 -17 26 -36 43 -43 16 -7 29 -16 29 -20 0 -5 9 -8 19 -8
11 0 21 -5 23 -11 5 -16 271 -16 276 0 2 6 9 11 16 11 18 0 66 24 66 33 0 4 6
7 14 7 19 0 106 87 106 106 0 8 4 14 8 14 12 0 52 92 52 118 0 19 -6 22 -40
22 -22 0 -40 -4 -40 -9 0 -15 -68 -23 -230 -28 -91 -2 -163 0 -175 6 -20 10
-62 17 -162 27 l-53 6 0 -81z m225 -22 c111 -16 266 -22 278 -10 16 16 77 14
77 -3 0 -18 -68 -86 -86 -86 -8 0 -14 -3 -14 -7 0 -12 -51 -33 -77 -33 -13 0
-23 -4 -23 -10 0 -23 -195 -6 -220 20 -3 3 -14 10 -25 16 -11 6 -24 20 -30 32
-5 12 -13 22 -17 22 -5 0 -8 11 -8 24 0 14 -5 28 -10 31 -23 14 4 27 44 21 22
-4 73 -11 111 -17z"/>
<path d="M1533 2465 c-15 -17 -17 -71 -3 -80 6 -3 10 -19 10 -35 0 -16 5 -32
10 -35 6 -3 10 -20 10 -36 0 -32 11 -48 47 -68 19 -10 26 -8 48 11 26 22 34
71 15 83 -5 3 -10 22 -10 41 0 19 -4 34 -10 34 -5 0 -10 15 -10 33 0 17 -7 40
-14 50 -16 21 -76 22 -93 2z"/>
</g>
</svg>
